<svg width="260" height="80" viewBox="0 0 260 80" fill="none" xmlns="http://www.w3.org/2000/svg">
  <rect width="260" height="80" rx="18" fill="#0F172A"/>
  <g opacity="0.15">
    <rect x="12" y="20" width="72" height="40" rx="10" fill="#F9FAFB"/>
  </g>
  <path d="M28 34L42 24L56 34V44H28V34Z" fill="#F8FAFC"/>
  <path d="M28 34L42 24L56 34" stroke="#FACC15" stroke-width="3" stroke-linecap="round" stroke-linejoin="round"/>
  <rect x="30" y="42" width="18" height="14" rx="3" fill="#F8FAFC"/>
  <rect x="38" y="46" width="6" height="6" rx="1" fill="#0F172A"/>
  <path d="M70 26H92L106 38V48H90" stroke="#F8FAFC" stroke-width="4" stroke-linecap="round" stroke-linejoin="round"/>
  <path d="M92 38H102L110 44" stroke="#FACC15" stroke-width="4" stroke-linecap="round"/>
  <path d="M86 48C86 50.2091 84.2091 52 82 52C79.7909 52 78 50.2091 78 48C78 45.7909 79.7909 44 82 44C84.2091 44 86 45.7909 86 48Z" fill="#F8FAFC"/>
  <path d="M102 48C102 50.2091 100.209 52 98 52C95.7909 52 94 50.2091 94 48C94 45.7909 95.7909 44 98 44C100.209 44 102 45.7909 102 48Z" fill="#F8FAFC"/>
  <path d="M70 26H84V18H70V26Z" fill="#F8FAFC"/>
  <path d="M70 26H86" stroke="#FACC15" stroke-width="4" stroke-linecap="round"/>
  <path d="M105 36H110" stroke="#FACC15" stroke-width="4" stroke-linecap="round"/>
  <path d="M110 40H118" stroke="#FACC15" stroke-width="4" stroke-linecap="round"/>
  <path d="M110 44H121" stroke="#FACC15" stroke-width="4" stroke-linecap="round"/>
  <text x="136" y="34" fill="#F8FAFC" font-family="Arial, Helvetica, sans-serif" font-size="26" font-weight="800" letter-spacing="0.04em">FASMOVES</text>
  <text x="136" y="57" fill="#F8FAFC" font-family="Arial, Helvetica, sans-serif" font-size="12" font-weight="700" letter-spacing="0.18em">TRANSPORT</text>
  <text x="136" y="72" fill="#F8FAFC" font-family="Arial, Helvetica, sans-serif" font-size="10" letter-spacing="0.12em">YOUR TRUSTED PARTNER</text>
</svg>
